# xmcd
#
# Track frame offsets: 
#        150
#        11496
#        22448
#        36678
#        48234
#        59509
#        68979
#        80025
#        92005
#        104613
#        117943
#        129248
#        141193
#        153877
#        164769
#        177494
#        189259
#        201176
#        214389
#        229811
#        240319
#        250259
#        263176
#        274839
#        287512
#        300047
#        311152
#
# Disc length: 4278 seconds
#
# Revision: 1
# Processed by: cddbd v1.5.2PL0 Copyright (c) Steve Scherf et al.
# Submitted via: ExactAudioCopy v1.1
#
DISCID=9010b41b
DTITLE=Various Artist - The Complete Motown Singles Volume 6 [CD32
DTITLE=)
DYEAR=2006
DGENRE=R&B
TTITLE0=The Miracles - (Come 'Round Here) I'm The One You Need (mono)
TTITLE1=The Miracles - Save Me (mono)
TTITLE2=Stevie Wonder - A Place In The Sun (mono)
TTITLE3=Stevie Wonder - Sylvia (mono)
TTITLE4=Jr. Walker and The All Stars - Money (That's What I Want) (Part 
TTITLE4=2) (mono)
TTITLE5=Jr. Walker and The All Stars - Money (That's What I Want) (Part 
TTITLE5=1) (mono)
TTITLE6=The Temptations - (I Know) I'm Losing You (mono)
TTITLE7=The Temptations - I Couldn't Cry If I Wanted To (mono)
TTITLE8=Jimmy Ruffin - I've Passed This Way Before (mono)
TTITLE9=Jimmy Ruffin - Tomorrow's Tears (mono)
TTITLE10=The Monitors - Since I Lost You Girl (mono)
TTITLE11=The Monitors - Don't Put Off Till Tomorrow What You Can Do To
TTITLE11=day (mono)
TTITLE12=Stevie Wonder - Some Day At Christmas (1st pressing Billie Je
TTITLE12=an Brown mix) (mono)
TTITLE13=Stevie Wonder - The Miracles Of Christmas (mono)
TTITLE14=Stevie Wonder - Some Day At Christmas (2nd pressing Brian Hol
TTITLE14=land mix) (mono)
TTITLE15=The Four Tops - Standing In The Shadows Of Love (mono)
TTITLE16=The Four Tops - Since You've Been Gone (mono)
TTITLE17=Marvin Gaye and Kim Weston - It Takes Two (mono)
TTITLE18=Marvin Gaye and Kim Weston - It's Got To Be A Miracle (This Thi
TTITLE18=ng Called Love) (mono)
TTITLE19=Earl Van Dyke and The Motown Brass - 6 By 6 (mono)
TTITLE20=Earl Van Dyke and The Motown Brass - (There Is) No Greater Love
TTITLE20=(mono)
TTITLE21=The Originals - Goodnight Irene (mono)
TTITLE22=The Originals - Need Your Lovin' (Want You Back) (mono)
TTITLE23=The Marvelettes - The Hunter Gets Captured By The Game (mono)
TTITLE24=The Marvelettes - I Think I Can Change You (mono)
TTITLE25=Christine Schumacher and The Supremes - Mother You, Smother You
TTITLE25=(mono)
TTITLE26=Motown Artists Christmas Messages (mono)
EXTD=
EXTT0=
EXTT1=
EXTT2=
EXTT3=
EXTT4=
EXTT5=
EXTT6=
EXTT7=
EXTT8=
EXTT9=
EXTT10=
EXTT11=
EXTT12=
EXTT13=
EXTT14=
EXTT15=
EXTT16=
EXTT17=
EXTT18=
EXTT19=
EXTT20=
EXTT21=
EXTT22=
EXTT23=
EXTT24=
EXTT25=
EXTT26=
PLAYORDER=
